<svg width="64" height="64" viewBox="0 0 64 64" fill="none" xmlns="http://www.w3.org/2000/svg">
<path d="M56 29.22C55.7348 29.22 55.4805 29.3254 55.2929 29.5129C55.1054 29.7004 55 29.9548 55 30.22C54.9993 31.0166 54.7365 31.7909 54.2521 32.4234C53.7678 33.0559 53.0889 33.5115 52.32 33.72C52.1674 31.435 51.5659 29.2025 50.55 27.15V27.15C50.55 27.15 50.49 27.08 50.47 27.04C50.3737 26.897 50.2421 26.7814 50.0879 26.7043C49.9337 26.6272 49.7622 26.5913 49.59 26.6C49.36 26.6 49.12 26.6 48.88 26.6C46.8054 26.6053 44.7797 25.9697 43.08 24.78L42.87 24.62C42.59 24.37 42.29 24.13 41.98 23.89L41.77 23.7C40.0682 22.0369 39.0061 19.8278 38.77 17.46C38.77 17.46 38.77 17.39 38.77 17.35C38.7586 17.2594 38.7315 17.1714 38.69 17.09C38.6642 17.0561 38.634 17.0258 38.6 17C38.5511 16.9213 38.4904 16.8504 38.42 16.79H38.35C38.2738 16.7316 38.1897 16.6844 38.1 16.65C32.7059 14.8364 26.8582 14.8927 21.5 16.81L13.37 10.81C13.2007 10.6894 12.9979 10.6246 12.79 10.6246C12.5821 10.6246 12.3794 10.6894 12.21 10.81C12.0402 10.9268 11.9106 11.0933 11.8389 11.2867C11.7673 11.48 11.7572 11.6907 11.81 11.89L14.23 21C11.5548 23.2797 9.56436 26.2567 8.48003 29.6H4.00003C3.84797 29.5963 3.69705 29.6273 3.55877 29.6907C3.4205 29.7541 3.2985 29.8481 3.20207 29.9658C3.10564 30.0834 3.03732 30.2215 3.00231 30.3695C2.9673 30.5176 2.96652 30.6716 3.00003 30.82L4.86003 39.34C4.90882 39.5674 5.03537 39.7708 5.21789 39.9149C5.40041 40.0591 5.62749 40.1352 5.86003 40.13H8.47003C10.1288 45.012 13.602 49.0688 18.17 51.46V58.66C18.17 58.9252 18.2754 59.1796 18.4629 59.3671C18.6505 59.5547 18.9048 59.66 19.17 59.66H23.28C23.4909 59.6599 23.6963 59.593 23.867 59.4691C24.0376 59.3452 24.1647 59.1705 24.23 58.97L25.82 54.09C28.5905 54.5566 31.4195 54.5566 34.19 54.09L35.77 59C35.8354 59.2005 35.9625 59.3752 36.1331 59.4991C36.3037 59.623 36.5092 59.6899 36.72 59.69H40.83C41.0952 59.69 41.3496 59.5847 41.5371 59.3971C41.7247 59.2096 41.83 58.9552 41.83 58.69V51.49C48 48.08 52 42.18 52.33 35.78C53.6385 35.5516 54.8244 34.8686 55.6788 33.8515C56.5331 32.8343 57.001 31.5483 57 30.22C57 29.9548 56.8947 29.7004 56.7071 29.5129C56.5196 29.3254 56.2652 29.22 56 29.22Z" fill="#E63946" id="id_101"></path>
<path d="M48.86 4.34003C46.4589 4.34003 44.1118 5.05203 42.1154 6.38599C40.1189 7.71995 38.5629 9.61595 37.6441 11.8342C36.7252 14.0525 36.4848 16.4935 36.9532 18.8484C37.4217 21.2034 38.5779 23.3665 40.2757 25.0643C41.9735 26.7621 44.1367 27.9183 46.4916 28.3868C48.8465 28.8552 51.2875 28.6148 53.5058 27.6959C55.724 26.7771 57.6201 25.2211 58.954 23.2246C60.288 21.2282 61 18.8811 61 16.48C60.9947 13.2619 59.714 10.1771 57.4384 7.90159C55.1629 5.62605 52.0781 4.34532 48.86 4.34003V4.34003Z" fill="#A8DADC" id="id_102"></path>
<path d="M17.5201 25.88C16.9872 25.878 16.4657 26.0344 16.0218 26.3292C15.5779 26.624 15.2316 27.044 15.0267 27.536C14.8219 28.0279 14.7678 28.5696 14.8713 29.0924C14.9747 29.6151 15.2311 30.0953 15.608 30.4721C15.9848 30.8489 16.465 31.1053 16.9877 31.2088C17.5105 31.3123 18.0522 31.2582 18.5441 31.0533C19.036 30.8485 19.4561 30.5022 19.7509 30.0583C20.0457 29.6144 20.202 29.0929 20.2001 28.56C20.2001 27.8492 19.9177 27.1676 19.4151 26.665C18.9125 26.1624 18.2308 25.88 17.5201 25.88Z" fill="#466089" id="id_103"></path>
<path d="M32.1 20C31.9685 19.9862 31.8357 19.9986 31.709 20.0365C31.5824 20.0743 31.4646 20.1369 31.3623 20.2206C31.26 20.3043 31.1753 20.4074 31.1131 20.5241C31.0509 20.6407 31.0125 20.7685 31 20.9C30.9862 21.0315 30.9986 21.1644 31.0364 21.291C31.0743 21.4176 31.1369 21.5355 31.2205 21.6378C31.3042 21.74 31.4074 21.8247 31.524 21.8869C31.6406 21.9491 31.7684 21.9875 31.9 22C39.07 22.71 44.84 27.51 45.62 33.42C45.6517 33.6621 45.7709 33.8843 45.9551 34.0445C46.1393 34.2048 46.3758 34.2921 46.62 34.29H46.75C47.0124 34.2552 47.2502 34.1177 47.4114 33.9078C47.5727 33.6978 47.644 33.4325 47.61 33.17C46.7 26.37 40.18 20.84 32.1 20Z" fill="#466089" id="id_104"></path>
<path d="M49.7001 15.48H48.0001C47.6967 15.4881 47.4025 15.376 47.1815 15.1681C46.9604 14.9602 46.8305 14.6733 46.8201 14.37C46.8206 14.2252 46.851 14.082 46.9096 13.9495C46.9681 13.817 47.0534 13.698 47.1601 13.6C47.3871 13.3858 47.688 13.2676 48.0001 13.27H51.1901C51.4553 13.27 51.7097 13.1647 51.8972 12.9772C52.0847 12.7896 52.1901 12.5353 52.1901 12.27C52.1901 12.0048 52.0847 11.7505 51.8972 11.5629C51.7097 11.3754 51.4553 11.27 51.1901 11.27H49.8601V9.86005C49.8601 9.59483 49.7547 9.34048 49.5672 9.15294C49.3797 8.9654 49.1253 8.86005 48.8601 8.86005C48.5949 8.86005 48.3405 8.9654 48.153 9.15294C47.9654 9.34048 47.8601 9.59483 47.8601 9.86005V11.28C47.0857 11.3105 46.3493 11.6235 45.7901 12.16C45.4929 12.4469 45.2559 12.79 45.0928 13.1695C44.9297 13.5489 44.8438 13.957 44.8401 14.37C44.8506 15.2003 45.1885 15.9927 45.7803 16.5751C46.372 17.1575 47.1698 17.4827 48.0001 17.48H49.7001C50.0034 17.472 50.2977 17.5841 50.5187 17.792C50.7397 17.9999 50.8696 18.2868 50.8801 18.59C50.8791 18.7339 50.8495 18.8761 50.7928 19.0083C50.7361 19.1406 50.6536 19.2601 50.5501 19.36C50.3199 19.5768 50.0162 19.6983 49.7001 19.7H46.5101C46.2449 19.7 45.9905 19.8054 45.803 19.9929C45.6154 20.1805 45.5101 20.4348 45.5101 20.7C45.5101 20.9653 45.6154 21.2196 45.803 21.4072C45.9905 21.5947 46.2449 21.7 46.5101 21.7H47.8601V23.1C47.8601 23.3653 47.9654 23.6196 48.153 23.8072C48.3405 23.9947 48.5949 24.1 48.8601 24.1C49.1253 24.1 49.3797 23.9947 49.5672 23.8072C49.7547 23.6196 49.8601 23.3653 49.8601 23.1V21.68C50.6369 21.6475 51.3757 21.3349 51.9401 20.8C52.3866 20.3653 52.6917 19.806 52.8155 19.1952C52.9394 18.5844 52.8763 17.9505 52.6344 17.3761C52.3926 16.8017 51.9833 16.3136 51.4598 15.9753C50.9364 15.6371 50.3231 15.4645 49.7001 15.48V15.48Z" fill="#466089" id="id_105"></path>
</svg>