<?xml version="1.0" encoding="UTF-8" standalone="no"?> <svg width="48" height="48" viewBox="0 0 48 48" fill="none" xmlns="http://www.w3.org/2000/svg">
<path d="M4.00004 11C3.73482 11 3.48047 11.1054 3.29293 11.2929C3.1054 11.4804 3.00004 11.7348 3.00004 12V35.071C2.99775 35.3227 3.09102 35.5659 3.26103 35.7515C3.43103 35.9371 3.66512 36.0513 3.91604 36.071C5.53204 36.194 9.00004 36.5 12 37C15.0918 37.4528 18.0185 38.6813 20.507 40.571C20.8577 40.8514 21.2941 41.0029 21.743 41H26.257C26.706 41.0029 27.1424 40.8514 27.493 40.571C29.9816 38.6813 32.9083 37.4528 36 37C39 36.5 42.468 36.194 44.084 36.067C44.335 36.0473 44.5691 35.9331 44.7391 35.7475C44.9091 35.5619 45.0023 35.3187 45 35.067V12C45 11.7348 44.8947 11.4804 44.7071 11.2929C44.5196 11.1054 44.2653 11 44 11H4.00004Z" fill="#E63946"/>
<path d="M40.9998 32H6.99981L3.25781 35.742C3.42722 35.9309 3.66286 36.0473 3.91581 36.067C5.53181 36.194 8.99981 36.5 11.9998 37C15.0916 37.4528 18.0182 38.6813 20.5068 40.571C20.8575 40.8514 21.2938 41.0029 21.7428 41H26.2568C26.7058 41.0029 27.1422 40.8514 27.4928 40.571C29.9814 38.6813 32.9081 37.4528 35.9998 37C38.9998 36.5 42.4678 36.194 44.0838 36.067C44.3368 36.0473 44.5724 35.9309 44.7418 35.742L40.9998 32Z" fill="#E63946"/>
<path d="M24 37C26.2576 34.9702 29.0216 33.5882 32 33C34.9644 32.4007 37.9763 32.066 41 32V7C37.9763 7.06604 34.9644 7.40069 32 8C29.0216 8.58817 26.2576 9.97021 24 12C21.7424 9.97021 18.9784 8.58817 16 8C13.0356 7.40069 10.0237 7.06604 7 7V32C10.0237 32.066 13.0356 32.4007 16 33C18.9784 33.5882 21.7424 34.9702 24 37Z" fill="#EAEFF0"/>
<path d="M29 33.8999V8.8999C27.1587 9.62054 25.4643 10.6711 24 11.9999V36.9999C25.4643 35.6711 27.1587 34.6205 29 33.8999V33.8999Z" fill="#D9E1E2"/>
<path d="M12 7.362C10.3411 7.15132 8.67197 7.03048 7 7V32C8.67197 32.0305 10.3411 32.1513 12 32.362V7.362Z" fill="#D9E1E2"/>
<path d="M44 10H42V7C42 6.73478 41.8946 6.48043 41.7071 6.29289C41.5196 6.10536 41.2652 6 41 6C37.909 6.06381 34.8299 6.40518 31.8 7.02C28.9463 7.59732 26.272 8.84842 24 10.669C21.728 8.84842 19.0537 7.59732 16.2 7.02C13.1701 6.40518 10.091 6.06381 7 6C6.73478 6 6.48043 6.10536 6.29289 6.29289C6.10536 6.48043 6 6.73478 6 7V10H4C3.46957 10 2.96086 10.2107 2.58579 10.5858C2.21071 10.9609 2 11.4696 2 12V35.071C2.00172 35.5728 2.19139 36.0558 2.53161 36.4248C2.87184 36.7937 3.33793 37.0217 3.838 37.064C5.573 37.2 8.918 37.5 11.838 37.986C14.759 38.413 17.525 39.57 19.88 41.35C20.4094 41.7722 21.0668 42.0015 21.744 42H26.256C26.933 42.0015 27.5904 41.7727 28.12 41.351C30.4755 39.5697 33.2427 38.4122 36.165 37.986C39.082 37.5 42.427 37.2 44.165 37.064C44.6645 37.021 45.1299 36.7927 45.4695 36.4238C45.8091 36.055 45.9983 35.5724 46 35.071V12C46 11.4696 45.7893 10.9609 45.4142 10.5858C45.0391 10.2107 44.5304 10 44 10ZM32.2 8.98C34.7729 8.47028 37.38 8.15241 40 8.029V31.029C37.2452 31.1529 34.5039 31.4872 31.8 32.029C29.3596 32.5227 27.0456 33.5095 25 34.929V12.441C27.0742 10.7055 29.5491 9.51576 32.2 8.98V8.98ZM8 8.029C10.62 8.15241 13.2271 8.47028 15.8 8.98C18.4497 9.52037 20.9238 10.7103 23 12.443V34.924C20.9544 33.5045 18.6404 32.5177 16.2 32.024C13.4961 31.4822 10.7548 31.1479 8 31.024V8.029ZM35.835 36.014C32.575 36.4993 29.4899 37.7987 26.865 39.792C26.6921 39.9296 26.4769 40.0031 26.256 40H21.744C21.5228 40.0029 21.3073 39.9295 21.134 39.792C18.5096 37.7984 15.4248 36.499 12.165 36.014C9.172 35.514 5.765 35.208 4 35.071V12H6V32C6 32.2652 6.10536 32.5196 6.29289 32.7071C6.48043 32.8946 6.73478 33 7 33C9.95632 33.0691 12.9009 33.397 15.8 33.98C18.5826 34.5379 21.1673 35.8244 23.29 37.708C23.4775 37.8952 23.7316 38.0003 23.9965 38.0003C24.2614 38.0003 24.5155 37.8952 24.703 37.708C26.8238 35.8175 29.4127 34.5301 32.2 33.98C35.0991 33.397 38.0437 33.0691 41 33C41.2652 33 41.5196 32.8946 41.7071 32.7071C41.8946 32.5196 42 32.2652 42 32V12H44L44.005 35.07C42.239 35.208 38.828 35.515 35.835 36.014Z" fill="black"/>
<path d="M19.9998 30.3399C20.226 30.3395 20.4454 30.2624 20.6221 30.1212C20.7988 29.9801 20.9225 29.7831 20.9728 29.5626C21.0232 29.3421 20.9973 29.111 20.8994 28.9071C20.8015 28.7032 20.6374 28.5385 20.4338 28.4399C19.0871 27.7923 17.6648 27.3152 16.1998 27.0199C14.5998 26.6979 12.8818 26.4409 11.1078 26.2549C10.844 26.2274 10.5799 26.3057 10.3738 26.4728C10.1677 26.6399 10.0364 26.882 10.0088 27.1459C9.98126 27.4098 10.0596 27.6739 10.2267 27.88C10.3938 28.0861 10.636 28.2174 10.8998 28.2449C12.6128 28.4239 14.2638 28.6719 15.7998 28.9799C17.1024 29.2421 18.3672 29.6657 19.5648 30.2409C19.7005 30.3063 19.8492 30.3401 19.9998 30.3399Z" fill="black"/>
<path d="M36.9001 26.2549C35.1261 26.4409 33.4121 26.6979 31.8001 27.0199C30.335 27.3151 28.9123 27.7917 27.5651 28.4389C27.3373 28.5604 27.1653 28.7653 27.0851 29.0108C27.0049 29.2562 27.0228 29.5231 27.1349 29.7557C27.2471 29.9882 27.4448 30.1684 27.6868 30.2585C27.9288 30.3486 28.1962 30.3416 28.4331 30.2389C29.6316 29.6644 30.897 29.2415 32.2001 28.9799C33.7441 28.6719 35.4001 28.4239 37.1081 28.2449C37.372 28.2174 37.6141 28.0861 37.7812 27.88C37.9483 27.6739 38.0267 27.4098 37.9991 27.1459C37.9715 26.882 37.8403 26.6399 37.6342 26.4728C37.4281 26.3057 37.164 26.2274 36.9001 26.2549V26.2549Z" fill="black"/>
<path d="M10.8998 23.2449C12.6128 23.4239 14.2638 23.6719 15.7998 23.9799C17.1024 24.2421 18.3672 24.6657 19.5648 25.2409C19.6837 25.3043 19.8142 25.343 19.9484 25.3548C20.0827 25.3665 20.2179 25.3509 20.3459 25.3091C20.474 25.2672 20.5923 25.2 20.6937 25.1113C20.7951 25.0225 20.8776 24.9143 20.9361 24.7929C20.9946 24.6715 21.028 24.5396 21.0343 24.405C21.0405 24.2704 21.0195 24.136 20.9725 24.0097C20.9255 23.8834 20.8535 23.7679 20.7608 23.6702C20.668 23.5725 20.5565 23.4945 20.4328 23.4409C19.0865 22.793 17.6645 22.3156 16.1998 22.0199C14.5998 21.6979 12.8818 21.4409 11.1078 21.2549C10.9772 21.2413 10.8451 21.2535 10.7192 21.2909C10.5932 21.3283 10.4759 21.3901 10.3738 21.4728C10.2718 21.5556 10.187 21.6576 10.1244 21.7731C10.0618 21.8886 10.0225 22.0153 10.0088 22.1459C9.99518 22.2766 10.0074 22.4087 10.0448 22.5346C10.0822 22.6606 10.144 22.7779 10.2267 22.88C10.3095 22.982 10.4115 23.0668 10.527 23.1294C10.6425 23.192 10.7692 23.2313 10.8998 23.2449V23.2449Z" fill="black"/>
<path d="M28.0002 25.3399C28.1506 25.3396 28.2989 25.3055 28.4342 25.2399C29.6323 24.6652 30.8974 24.2419 32.2002 23.9799C33.7442 23.6719 35.4002 23.4239 37.1082 23.2449C37.2389 23.2313 37.3656 23.192 37.4811 23.1294C37.5966 23.0668 37.6986 22.982 37.7813 22.88C37.8641 22.7779 37.9259 22.6606 37.9633 22.5346C38.0007 22.4087 38.0129 22.2766 37.9992 22.1459C37.9856 22.0153 37.9463 21.8886 37.8837 21.7731C37.821 21.6576 37.7363 21.5556 37.6342 21.4728C37.5322 21.3901 37.4148 21.3283 37.2889 21.2909C37.1629 21.2535 37.0309 21.2413 36.9002 21.2549C35.1262 21.4409 33.4122 21.6979 31.8002 22.0199C30.335 22.3151 28.9124 22.7917 27.5652 23.4389C27.361 23.5373 27.1962 23.702 27.098 23.9063C26.9997 24.1105 26.9737 24.3421 27.0242 24.563C27.0748 24.7839 27.1989 24.9811 27.3762 25.1223C27.5535 25.2635 27.7736 25.3402 28.0002 25.3399Z" fill="black"/>
<path d="M10.8998 18.2449C12.6128 18.4239 14.2638 18.6719 15.7998 18.9799C17.1024 19.2421 18.3672 19.6657 19.5648 20.2409C19.6837 20.3043 19.8142 20.343 19.9484 20.3548C20.0827 20.3665 20.2179 20.3509 20.3459 20.3091C20.474 20.2672 20.5923 20.2 20.6937 20.1113C20.7951 20.0225 20.8776 19.9143 20.9361 19.7929C20.9946 19.6715 21.028 19.5396 21.0343 19.405C21.0405 19.2704 21.0195 19.136 20.9725 19.0097C20.9255 18.8834 20.8535 18.7679 20.7608 18.6702C20.668 18.5725 20.5565 18.4945 20.4328 18.4409C19.0865 17.793 17.6645 17.3156 16.1998 17.0199C14.5998 16.6979 12.8818 16.4409 11.1078 16.2549C10.9772 16.2413 10.8451 16.2535 10.7192 16.2909C10.5932 16.3283 10.4759 16.3901 10.3738 16.4728C10.2718 16.5556 10.187 16.6576 10.1244 16.7731C10.0618 16.8886 10.0225 17.0153 10.0088 17.1459C9.99518 17.2766 10.0074 17.4087 10.0448 17.5346C10.0822 17.6606 10.144 17.7779 10.2267 17.88C10.3095 17.982 10.4115 18.0668 10.527 18.1294C10.6425 18.192 10.7692 18.2313 10.8998 18.2449V18.2449Z" fill="black"/>
<path d="M28.0002 20.3399C28.1506 20.3397 28.2989 20.3055 28.4342 20.2399C29.6323 19.6652 30.8974 19.2419 32.2002 18.9799C33.7442 18.6719 35.4002 18.4239 37.1082 18.2449C37.3721 18.2174 37.6142 18.0861 37.7813 17.88C37.9484 17.6739 38.0268 17.4098 37.9992 17.1459C37.9716 16.882 37.8403 16.6399 37.6342 16.4728C37.4281 16.3057 37.1641 16.2274 36.9002 16.2549C35.1262 16.4409 33.4122 16.6979 31.8002 17.0199C30.335 17.3151 28.9124 17.7917 27.5652 18.4389C27.361 18.5373 27.1962 18.702 27.098 18.9063C26.9997 19.1105 26.9737 19.3421 27.0242 19.563C27.0748 19.7839 27.1989 19.9811 27.3762 20.1223C27.5535 20.2635 27.7736 20.3402 28.0002 20.3399Z" fill="black"/>
<path d="M10.8998 13.2449C12.6128 13.4239 14.2638 13.6719 15.7998 13.9799C17.1024 14.2421 18.3672 14.6657 19.5648 15.2409C19.6837 15.3043 19.8142 15.343 19.9484 15.3548C20.0827 15.3665 20.2179 15.3509 20.3459 15.3091C20.474 15.2673 20.5923 15.2 20.6937 15.1113C20.7951 15.0225 20.8776 14.9143 20.9361 14.7929C20.9946 14.6715 21.028 14.5396 21.0343 14.405C21.0405 14.2704 21.0195 14.136 20.9725 14.0097C20.9255 13.8834 20.8535 13.7679 20.7608 13.6702C20.668 13.5725 20.5565 13.4945 20.4328 13.4409C19.0865 12.793 17.6645 12.3156 16.1998 12.0199C14.5998 11.6979 12.8818 11.4409 11.1078 11.2549C10.844 11.2274 10.5799 11.3057 10.3738 11.4728C10.1677 11.6399 10.0364 11.882 10.0088 12.1459C9.98126 12.4098 10.0596 12.6739 10.2267 12.88C10.3938 13.0861 10.636 13.2174 10.8998 13.2449Z" fill="black"/>
<path d="M28.0002 15.3399C28.1506 15.3397 28.2989 15.3055 28.4342 15.2399C29.6323 14.6652 30.8974 14.2419 32.2002 13.9799C33.7442 13.6719 35.4002 13.4239 37.1082 13.2449C37.3721 13.2174 37.6142 13.0861 37.7813 12.88C37.9484 12.6739 38.0268 12.4098 37.9992 12.1459C37.9716 11.882 37.8403 11.6399 37.6342 11.4728C37.4281 11.3057 37.1641 11.2274 36.9002 11.2549C35.1262 11.4409 33.4122 11.6979 31.8002 12.0199C30.335 12.3151 28.9124 12.7917 27.5652 13.4389C27.361 13.5373 27.1962 13.702 27.098 13.9063C26.9997 14.1105 26.9737 14.3421 27.0242 14.563C27.0748 14.7839 27.1989 14.9811 27.3762 15.1223C27.5535 15.2635 27.7736 15.3402 28.0002 15.3399V15.3399Z" fill="black"/>
</svg>
