<?xml version="1.0" encoding="UTF-8" standalone="no"?> <svg id="Layer_1" data-name="Layer 1" xmlns="http://www.w3.org/2000/svg" viewBox="0 0 64 64"><defs><style>.cls-1{fill:#E63946;}.cls-2{fill:#E63946;}.cls-3{fill:#e5e5e5;}.cls-4{fill:#d1d1d1;}.cls-5{fill:#A8DADC;}.cls-6{fill:#A8DADC;}.cls-7{fill:#35251c;}</style></defs><title>Reusable Coffee Cup</title><path class="cls-1" d="M25.72,7A6.14,6.14,0,0,0,37.41,7H48.26V4.71a3,3,0,0,0-3-3H17.86a3,3,0,0,0-3,3V7Z"/><path class="cls-2" d="M45.27,1.72h-12V11a6.1,6.1,0,0,0,4.14-4H48.26V4.71A3,3,0,0,0,45.27,1.72Z"/><path class="cls-3" d="M14.86,15.81a4.07,4.07,0,0,0-.08.79l3,42.14a3.76,3.76,0,0,0,3.64,3.84H42a3.76,3.76,0,0,0,3.64-3.84L48.35,16.6a3.42,3.42,0,0,0-.09-.79Z"/><path class="cls-4" d="M33.27,15.81V62.58H42a3.76,3.76,0,0,0,3.64-3.84L48.35,16.6a3.42,3.42,0,0,0-.09-.79Z"/><path class="cls-1" d="M49.39,7h-12A6.14,6.14,0,0,1,25.72,7h-12a2.23,2.23,0,0,0-2.23,2.23v4.39a2.23,2.23,0,0,0,2.23,2.23H49.39a2.23,2.23,0,0,0,2.23-2.23V9.19A2.23,2.23,0,0,0,49.39,7Z"/><path class="cls-2" d="M49.39,7h-12a6.1,6.1,0,0,1-4.14,4v4.85H49.39a2.23,2.23,0,0,0,2.23-2.23V9.19A2.23,2.23,0,0,0,49.39,7Z"/><polygon class="cls-1" points="16.73 44.95 46.5 44.95 47.52 29.01 15.61 29.01 16.73 44.95"/><polygon class="cls-2" points="31.56 44.95 46.5 44.95 47.52 29.01 31.56 29.01 31.56 44.95"/><circle class="cls-5" cx="31.56" cy="36.98" r="7.97"/><path class="cls-6" d="M33.27,29.19V44.77a8,8,0,0,0,0-15.58Z"/><path class="cls-7" d="M49.76,5.5V4.71A4.5,4.5,0,0,0,45.27.22H17.86a4.49,4.49,0,0,0-4.49,4.49V5.5A3.72,3.72,0,0,0,10,9.19v4.39a3.72,3.72,0,0,0,3.32,3.69L14,27.51h0l1.33,18.94h0l.86,12.34a5.26,5.26,0,0,0,5.14,5.29H42a5.23,5.23,0,0,0,5.14-5.25L49.8,17.27a3.72,3.72,0,0,0,3.32-3.69V9.19A3.72,3.72,0,0,0,49.76,5.5ZM16.37,4.71a1.49,1.49,0,0,1,1.49-1.49H45.27a1.49,1.49,0,0,1,1.49,1.49v.75H36.32L36,6.5a4.64,4.64,0,0,1-8.84,0l-.33-1H16.37Zm0,12.6H46.8l-.65,10.2H17.05Zm22.13,13.2h7.46l-.83,12.94H38.46a9.4,9.4,0,0,0,0-12.94ZM38,37a6.48,6.48,0,1,1-6.48-6.47A6.48,6.48,0,0,1,38,37ZM24.67,43.45H18.16l-.9-12.94h7.41a9.4,9.4,0,0,0,0,12.94ZM42,61.08H21.37a2.25,2.25,0,0,1-2.14-2.34l-.86-12.29H44.94l-.78,12.29A2.25,2.25,0,0,1,42,61.08Zm8.1-47.5a.73.73,0,0,1-.73.73H13.74a.73.73,0,0,1-.73-.73V9.19a.73.73,0,0,1,.73-.73h11a7.65,7.65,0,0,0,13.71,0h11a.73.73,0,0,1,.73.73Z"/></svg>