<?xml version="1.0" encoding="UTF-8" standalone="no"?> <svg id="Enough_Sleep" data-name="Enough Sleep" xmlns="http://www.w3.org/2000/svg" viewBox="0 0 48 48"><defs><style>.cls-1{fill:#E63946;}.cls-2{fill:#E63946;}.cls-3{fill:#ffffff;}.cls-4{fill:#A8DADC;}</style></defs><title>Enough Sleep</title><rect class="cls-1" x="8" y="31" width="32" height="10"/><path class="cls-2" d="M5.5,17h0A2.5,2.5,0,0,0,3,19.5V43a1,1,0,0,0,1,1H7a1,1,0,0,0,1-1V19.5A2.5,2.5,0,0,0,5.5,17Z"/><path class="cls-2" d="M42.5,23h0A2.5,2.5,0,0,0,40,25.5V43a1,1,0,0,0,1,1h3a1,1,0,0,0,1-1V25.5A2.5,2.5,0,0,0,42.5,23Z"/><circle class="cls-3" cx="14" cy="26" r="4"/><path class="cls-4" d="M32,34c-4,0-6,2-13,2V26a4,4,0,0,1,4-4H36a4,4,0,0,1,4,4v9A27.673,27.673,0,0,0,32,34Z"/><circle class="cls-4" cx="33" cy="12" r="7"/><path d="M42.5,22a3.487,3.487,0,0,0-2.489,1.045A4.979,4.979,0,0,0,36,21H23a4.993,4.993,0,0,0-4.5,2.86A4.987,4.987,0,1,0,11.031,30H9V19.5a3.5,3.5,0,0,0-7,0V43a2,2,0,0,0,2,2H7a2,2,0,0,0,2-2V42H39v1a2,2,0,0,0,2,2h3a2,2,0,0,0,2-2V25.5A3.5,3.5,0,0,0,42.5,22ZM7,43H4V19.5a1.5,1.5,0,0,1,3,0ZM20,26a3,3,0,0,1,3-3H36a3,3,0,0,1,3,3v7.706A32.606,32.606,0,0,0,32,33a17.361,17.361,0,0,0-4.877.829A27.231,27.231,0,0,1,20,34.985Zm-6-3a3,3,0,1,1-3,3A3,3,0,0,1,14,23Zm4,5.969V30H16.969A4.988,4.988,0,0,0,18,28.969ZM9,40V32h9v4a1,1,0,0,0,1,1,29.339,29.339,0,0,0,8.652-1.243A15.6,15.6,0,0,1,32,35a29.8,29.8,0,0,1,7,.763V40Zm35,3H41V25.5a1.5,1.5,0,0,1,3,0Z"/><path d="M17,15h1.586l-2.293,2.293A1,1,0,0,0,17,19h4a1,1,0,0,0,0-2H19.414l2.293-2.293A1,1,0,0,0,21,13H17a1,1,0,0,0,0,2Z"/><path d="M9,6h3.586L8.293,10.293A1,1,0,0,0,9,12h6a1,1,0,0,0,0-2H11.414l4.293-4.293A1,1,0,0,0,15,4H9A1,1,0,0,0,9,6Z"/><path d="M33,20a8,8,0,1,0-8-8A8.009,8.009,0,0,0,33,20ZM33,6a6,6,0,1,1-6,6A6.006,6.006,0,0,1,33,6Z"/><path d="M33,13h2a1,1,0,0,0,0-2H34V9a1,1,0,0,0-2,0v3A1,1,0,0,0,33,13Z"/></svg>