<svg width="556" height="509" viewBox="0 0 556 509" fill="none" xmlns="http://www.w3.org/2000/svg">
<g clip-path="url(#clip0_3_15)">
<path d="M513.968 389.4L538.911 393.215C547.354 383.209 553.174 371.338 555.866 358.63C537.627 373.243 509.892 365.478 487.776 373.456C480.898 375.996 474.692 380.018 469.618 385.225C464.544 390.432 460.732 396.689 458.465 403.534L446.275 416.371C457.309 420.647 469.159 422.53 481.009 421.892C492.858 421.253 504.425 418.108 514.913 412.672C520.766 409.566 526.196 405.75 531.075 401.316C522.347 395.937 513.968 389.4 513.968 389.4Z" fill="#E63946"/>
<path d="M505.114 350.354L529.177 342.881C532.175 330.239 531.975 317.073 528.594 304.524C518.928 325.565 490.565 330.722 474.406 347.517C469.407 352.793 465.685 359.102 463.516 365.977C461.347 372.853 460.787 380.117 461.876 387.234L456.815 404.044C468.639 403.054 480.103 399.567 490.418 393.823C500.733 388.079 509.653 380.214 516.563 370.771C520.387 365.436 523.508 359.65 525.854 353.552C515.592 352.547 505.114 350.354 505.114 350.354Z" fill="#E63946"/>
<path d="M556 424.147C556 424.273 555.975 424.398 555.926 424.514C555.877 424.631 555.805 424.737 555.714 424.826C555.623 424.915 555.515 424.985 555.396 425.033C555.277 425.081 555.149 425.106 555.021 425.106H0.979237C0.719528 425.106 0.470452 425.005 0.28681 424.825C0.103168 424.645 0 424.401 0 424.147C0 423.893 0.103168 423.649 0.28681 423.469C0.470452 423.29 0.719528 423.189 0.979237 423.189H555.021C555.149 423.188 555.277 423.213 555.396 423.261C555.515 423.309 555.623 423.379 555.714 423.469C555.805 423.558 555.877 423.663 555.926 423.78C555.975 423.896 556 424.021 556 424.147Z" fill="#CCCCCC"/>
<path d="M229.584 383.285C327.294 383.285 406.504 305.754 406.504 210.114C406.504 114.474 327.294 36.9426 229.584 36.9426C131.873 36.9426 52.6628 114.474 52.6628 210.114C52.6628 305.754 131.873 383.285 229.584 383.285Z" fill="#1D3557"/>
<path d="M381.818 210.114C381.836 233.364 376.287 256.296 365.616 277.069C354.945 297.841 339.45 315.878 320.373 329.731C319.097 330.665 317.797 331.575 316.489 332.461C290.978 349.819 260.652 359.122 229.584 359.122C198.515 359.122 168.19 349.819 142.679 332.461C141.37 331.575 140.07 330.665 138.795 329.731C119.73 315.865 104.245 297.827 93.5755 277.057C82.9063 256.287 77.3496 233.361 77.3496 210.114C77.3496 186.866 82.9063 163.941 93.5755 143.171C104.245 122.401 119.73 104.362 138.795 90.4968C140.07 89.5625 141.37 88.6523 142.679 87.7663C168.19 70.4091 198.515 61.106 229.584 61.106C260.652 61.106 290.978 70.4091 316.489 87.7663C317.797 88.6523 319.097 89.5625 320.373 90.4968C339.45 104.35 354.945 122.386 365.616 143.159C376.287 163.932 381.836 186.863 381.818 210.114Z" fill="#F1FAEE"/>
<path d="M229.584 346.234C306.389 346.234 368.651 285.291 368.651 210.114C368.651 134.936 306.389 73.9932 229.584 73.9932C152.778 73.9932 90.5156 134.936 90.5156 210.114C90.5156 285.291 152.778 346.234 229.584 346.234Z" fill="#A8DADC"/>
<path opacity="0.2" d="M229.946 74.3737C227.838 74.3737 225.743 74.4276 223.658 74.5185C258.806 77.5416 291.467 93.5295 315.022 119.243C338.577 144.956 351.266 178.472 350.517 213.001C349.768 247.529 335.638 280.488 310.989 305.2C286.341 329.912 253.017 344.529 217.769 346.09C221.783 346.431 225.842 346.615 229.946 346.615C266.83 346.615 302.202 332.274 328.282 306.746C354.363 281.219 369.014 246.596 369.014 210.494C369.014 174.393 354.363 139.77 328.282 114.242C302.202 88.7149 266.83 74.3737 229.946 74.3737V74.3737Z" fill="black"/>
<path d="M229.995 64.3278C228.795 64.3299 227.645 64.7972 226.797 65.6276C225.949 66.4579 225.471 67.5835 225.469 68.7578V88.0885C225.469 89.2634 225.946 90.3902 226.795 91.2209C227.644 92.0517 228.795 92.5184 229.995 92.5184C231.195 92.5184 232.347 92.0517 233.195 91.2209C234.044 90.3902 234.521 89.2634 234.521 88.0885V68.7578C234.519 67.5835 234.041 66.4579 233.193 65.6276C232.345 64.7972 231.195 64.3299 229.995 64.3278Z" fill="white"/>
<path d="M320.373 90.4968C319.097 89.5625 317.797 88.6523 316.489 87.7663C315.704 87.7162 314.919 87.8674 314.212 88.205C313.504 88.5426 312.899 89.0549 312.456 89.6913L301.339 105.663C300.664 106.634 300.41 107.828 300.634 108.982C300.858 110.136 301.541 111.156 302.532 111.817C303.524 112.478 304.744 112.726 305.923 112.507C307.102 112.288 308.144 111.62 308.819 110.649L319.937 94.677C320.359 94.0711 320.621 93.3712 320.697 92.6411C320.773 91.9111 320.662 91.1739 320.373 90.4968Z" fill="white"/>
<path d="M370.881 163.325C370.658 162.787 370.328 162.297 369.911 161.883C369.494 161.469 368.998 161.14 368.45 160.914C367.903 160.688 367.316 160.57 366.722 160.566C366.128 160.563 365.54 160.674 364.99 160.893L346.689 168.166C345.578 168.609 344.692 169.465 344.226 170.547C343.76 171.629 343.752 172.848 344.203 173.936C344.655 175.023 345.529 175.891 346.634 176.348C347.739 176.805 348.984 176.814 350.095 176.374L368.396 169.1C369.507 168.655 370.392 167.798 370.857 166.715C371.323 165.633 371.332 164.414 370.881 163.325Z" fill="white"/>
<path d="M157.828 105.663L146.711 89.6913C146.268 89.0549 145.663 88.5426 144.956 88.205C144.249 87.8674 143.464 87.7162 142.679 87.7663C141.37 88.6523 140.07 89.5625 138.795 90.4968C138.505 91.1739 138.394 91.9111 138.47 92.6411C138.546 93.3712 138.808 94.0711 139.231 94.677L150.348 110.649C151.023 111.62 152.065 112.288 153.244 112.507C154.423 112.726 155.643 112.478 156.635 111.817C157.627 111.156 158.31 110.136 158.533 108.982C158.757 107.828 158.503 106.634 157.828 105.663Z" fill="white"/>
<path d="M112.478 168.166L94.1775 160.893C93.0656 160.451 91.8199 160.459 90.7143 160.916C89.6088 161.373 88.734 162.241 88.2823 163.33C87.8306 164.418 87.839 165.637 88.3056 166.719C88.7723 167.802 89.659 168.658 90.7707 169.1L109.072 176.374C110.183 176.814 111.428 176.805 112.533 176.348C113.638 175.891 114.512 175.023 114.964 173.935C115.415 172.848 115.407 171.629 114.941 170.547C114.475 169.465 113.589 168.609 112.478 168.166V168.166Z" fill="white"/>
<path d="M229.995 327.709C228.795 327.711 227.645 328.179 226.797 329.009C225.949 329.839 225.471 330.965 225.469 332.139V351.47C225.469 352.645 225.946 353.771 226.795 354.602C227.644 355.433 228.795 355.9 229.995 355.9C231.195 355.9 232.347 355.433 233.195 354.602C234.044 353.771 234.521 352.645 234.521 351.47V332.139C234.519 330.965 234.041 329.839 233.193 329.009C232.345 328.179 231.195 327.711 229.995 327.709Z" fill="white"/>
<path d="M319.937 325.55L308.819 309.578C308.485 309.098 308.057 308.686 307.56 308.367C307.063 308.048 306.507 307.828 305.923 307.72C305.339 307.612 304.739 307.617 304.158 307.735C303.576 307.854 303.024 308.083 302.532 308.411C302.041 308.738 301.621 309.157 301.295 309.643C300.969 310.13 300.745 310.674 300.634 311.245C300.523 311.817 300.528 312.404 300.649 312.973C300.77 313.543 301.005 314.083 301.339 314.564L312.456 330.536C312.899 331.173 313.504 331.685 314.212 332.022C314.919 332.36 315.704 332.511 316.489 332.461C317.797 331.575 319.097 330.665 320.373 329.731C320.662 329.054 320.773 328.316 320.697 327.586C320.621 326.856 320.36 326.156 319.937 325.55Z" fill="white"/>
<path d="M368.396 251.127L350.095 243.854C348.984 243.412 347.738 243.42 346.632 243.877C345.527 244.334 344.652 245.202 344.2 246.291C343.749 247.379 343.757 248.598 344.224 249.68C344.69 250.763 345.577 251.619 346.689 252.061L364.99 259.335C366.101 259.776 367.346 259.766 368.451 259.309C369.556 258.852 370.43 257.984 370.882 256.897C371.333 255.809 371.325 254.59 370.859 253.508C370.393 252.426 369.507 251.57 368.396 251.127V251.127Z" fill="white"/>
<path d="M156.635 308.411C155.643 307.75 154.423 307.501 153.244 307.72C152.065 307.939 151.024 308.608 150.348 309.578L139.231 325.55C138.808 326.156 138.546 326.856 138.47 327.586C138.394 328.316 138.505 329.054 138.795 329.731C140.07 330.665 141.37 331.575 142.679 332.461C143.464 332.511 144.249 332.36 144.956 332.022C145.663 331.685 146.268 331.173 146.711 330.536L157.828 314.564C158.162 314.083 158.397 313.543 158.518 312.973C158.639 312.404 158.644 311.817 158.534 311.245C158.423 310.674 158.198 310.13 157.872 309.643C157.546 309.157 157.126 308.738 156.635 308.411Z" fill="white"/>
<path d="M114.964 246.286C114.74 245.748 114.41 245.258 113.993 244.844C113.576 244.43 113.08 244.101 112.533 243.875C111.986 243.649 111.398 243.531 110.804 243.527C110.211 243.524 109.622 243.635 109.072 243.854L90.7708 251.127C89.66 251.57 88.7742 252.427 88.3082 253.508C87.8421 254.59 87.834 255.809 88.2855 256.897C88.737 257.984 89.6112 258.852 90.716 259.309C91.8208 259.766 93.0659 259.776 94.1776 259.335L112.479 252.061C113.589 251.616 114.474 250.759 114.94 249.676C115.405 248.594 115.414 247.375 114.964 246.286Z" fill="white"/>
<path d="M235.867 207.916C236.285 210.337 235.705 212.822 234.253 214.825C232.802 216.828 230.598 218.186 228.125 218.6L147.813 231.972C146.588 232.176 145.333 232.142 144.122 231.871C142.91 231.601 141.765 231.099 140.751 230.396C139.738 229.692 138.875 228.8 138.214 227.77C137.553 226.74 137.105 225.593 136.897 224.394C136.688 223.194 136.723 221.967 137 220.781C137.276 219.595 137.788 218.474 138.507 217.482C139.226 216.49 140.138 215.646 141.19 214.998C142.242 214.351 143.414 213.913 144.639 213.709L224.951 200.337C227.425 199.928 229.964 200.497 232.01 201.917C234.057 203.338 235.444 205.495 235.867 207.916Z" fill="#3F3D56"/>
<path d="M320.394 295.009C319.24 296.145 317.673 296.787 316.037 296.793C314.401 296.799 312.829 296.17 311.666 295.043L225.211 211.084C224.051 209.955 223.396 208.422 223.39 206.821C223.384 205.22 224.028 203.682 225.181 202.545C226.333 201.408 227.899 200.766 229.535 200.759C231.17 200.752 232.742 201.381 233.905 202.507L320.36 286.466C321.52 287.596 322.175 289.129 322.182 290.731C322.188 292.333 321.545 293.871 320.394 295.009Z" fill="#3F3D56"/>
<path d="M229.584 220.585C235.492 220.585 240.281 215.897 240.281 210.114C240.281 204.331 235.492 199.643 229.584 199.643C223.675 199.643 218.886 204.331 218.886 210.114C218.886 215.897 223.675 220.585 229.584 220.585Z" fill="#CCCCCC"/>
<path d="M155.899 28.5489C139.478 53.8178 114.424 70.5874 83.5263 81.604C82.9158 82.0516 82.2211 82.3771 81.4821 82.5619C80.743 82.7468 79.974 82.7873 79.2189 82.6812C78.4638 82.5751 77.7375 82.3245 77.0814 81.9437C76.4253 81.5628 75.8522 81.0592 75.3949 80.4616C58.6114 58.5273 62.4011 27.1788 84.5518 10.4184C89.9071 6.37334 96.0299 3.40982 102.565 1.69987C109.1 -0.0100715 115.917 -0.432389 122.62 0.457451C129.323 1.34729 135.779 3.53156 141.612 6.88344C147.446 10.2353 152.541 14.6881 156.602 19.9831L157.066 20.5898C157.524 21.1874 157.856 21.8674 158.045 22.5908C158.234 23.3142 158.275 24.0669 158.167 24.806C158.058 25.545 157.802 26.256 157.413 26.8982C157.024 27.5404 156.51 28.1013 155.899 28.5489Z" fill="#457B9D"/>
<path d="M302.565 19.9831C306.626 14.688 311.721 10.2353 317.555 6.8834C323.388 3.53152 329.844 1.34726 336.547 0.457424C343.25 -0.432417 350.067 -0.0101109 356.602 1.69984C363.137 3.40978 369.26 6.3733 374.615 10.4183C396.766 27.1787 400.556 58.5272 383.772 80.4616C383.315 81.0592 382.742 81.5628 382.086 81.9436C381.43 82.3245 380.703 82.5751 379.948 82.6812C379.193 82.7873 378.424 82.7467 377.685 82.5619C376.946 82.3771 376.251 82.0516 375.641 81.604C346.957 70.855 323.435 52.2539 303.268 28.5488C302.035 27.6449 301.219 26.2985 301 24.8059C300.781 23.3133 301.177 21.7967 302.101 20.5898L302.565 19.9831Z" fill="#457B9D"/>
<path d="M295.368 360.143C294.322 360.718 293.552 361.676 293.226 362.806C292.9 363.936 293.044 365.146 293.628 366.172L319.748 411.859C320.335 412.884 321.313 413.639 322.468 413.958C323.623 414.278 324.86 414.135 325.908 413.561C326.955 412.987 327.727 412.03 328.053 410.899C328.379 409.769 328.233 408.558 327.647 407.533L301.527 361.846C300.94 360.822 299.962 360.068 298.807 359.749C297.652 359.43 296.416 359.571 295.368 360.143Z" fill="#E6E6E6"/>
<path d="M157.64 361.846L131.52 407.533C130.934 408.558 130.788 409.769 131.114 410.899C131.441 412.03 132.212 412.987 133.26 413.561C134.307 414.135 135.544 414.278 136.699 413.958C137.854 413.639 138.832 412.884 139.419 411.859L165.539 366.172C165.829 365.665 166.015 365.106 166.084 364.528C166.154 363.95 166.107 363.365 165.945 362.805C165.784 362.245 165.511 361.721 165.143 361.264C164.775 360.808 164.319 360.426 163.8 360.142C163.281 359.858 162.71 359.677 162.12 359.609C161.53 359.54 160.931 359.587 160.359 359.745C159.787 359.903 159.253 360.17 158.786 360.53C158.319 360.891 157.93 361.338 157.64 361.846H157.64Z" fill="#E6E6E6"/>
<path d="M325.038 423.557C332.764 423.557 339.027 417.427 339.027 409.865C339.027 402.303 332.764 396.172 325.038 396.172C317.312 396.172 311.049 402.303 311.049 409.865C311.049 417.427 317.312 423.557 325.038 423.557Z" fill="#457B9D"/>
<path d="M334.913 73.1877C342.639 73.1877 348.902 67.0573 348.902 59.4951C348.902 51.9329 342.639 45.8025 334.913 45.8025C327.187 45.8025 320.924 51.9329 320.924 59.4951C320.924 67.0573 327.187 73.1877 334.913 73.1877Z" fill="#E6E6E6"/>
<path d="M228.761 40.9698C236.487 40.9698 242.75 34.8394 242.75 27.2772C242.75 19.715 236.487 13.5846 228.761 13.5846C221.035 13.5846 214.771 19.715 214.771 27.2772C214.771 34.8394 221.035 40.9698 228.761 40.9698Z" fill="#E6E6E6"/>
<path d="M127.546 71.5768C135.272 71.5768 141.535 65.4464 141.535 57.8842C141.535 50.322 135.272 44.1916 127.546 44.1916C119.82 44.1916 113.557 50.322 113.557 57.8842C113.557 65.4464 119.82 71.5768 127.546 71.5768Z" fill="#E6E6E6"/>
<path d="M136.597 423.557C144.323 423.557 150.586 417.427 150.586 409.865C150.586 402.303 144.323 396.172 136.597 396.172C128.871 396.172 122.608 402.303 122.608 409.865C122.608 417.427 128.871 423.557 136.597 423.557Z" fill="#457B9D"/>
<path d="M314.065 287.308C314.617 288.154 315.351 288.87 316.216 289.408C317.081 289.945 318.056 290.29 319.072 290.419C320.088 290.548 321.12 290.457 322.096 290.153C323.073 289.849 323.969 289.339 324.722 288.659L346.673 300.172L345.496 287.557L324.831 278.559C323.581 277.396 321.938 276.723 320.214 276.666C318.49 276.61 316.805 277.175 315.478 278.253C314.151 279.332 313.274 280.849 313.014 282.518C312.754 284.187 313.128 285.892 314.065 287.308H314.065Z" fill="#FFB7B7"/>
<path d="M330.059 291.711L338.661 280.089L380.102 299.263L431.67 289.793C434.219 289.325 436.842 289.412 439.353 290.047C441.863 290.683 444.2 291.852 446.198 293.471C448.195 295.091 449.804 297.12 450.909 299.417C452.015 301.713 452.591 304.219 452.596 306.758C452.599 311.343 450.745 315.742 447.438 318.99C444.132 322.238 439.645 324.07 434.96 324.083L375.864 324.19L330.059 291.711Z" fill="#457B9D"/>
<path d="M316.811 492.45L308.107 488.376L320.063 452.769L332.907 458.782L316.811 492.45Z" fill="#FFB7B7"/>
<path d="M375.158 486.709C374.525 487.097 373.893 487.479 373.253 487.861C371.981 488.624 370.696 489.375 369.411 490.113C368.766 490.483 368.113 490.852 367.468 491.215V491.234L367.429 491.24L367.417 491.246L366.432 491.484L365.019 487.83L364.367 486.146L363.447 483.762L361.759 479.401L352.873 456.437L366.688 453.102L367.206 455.173H367.212L367.468 456.199L372.294 475.359L373.279 479.276L373.311 479.395L373.905 481.735L374.417 483.762L374.986 486.028L375.158 486.709Z" fill="#FFB7B7"/>
<path d="M457.569 406.064C456.693 407.441 455.798 408.811 454.897 410.169C453.222 412.697 451.502 415.187 449.738 417.64C449.738 417.646 449.731 417.646 449.725 417.653C448.696 418.586 447.559 419.399 446.337 420.074C446.286 420.112 446.228 420.137 446.177 420.168C445.277 420.655 444.32 421.031 443.326 421.288C442.968 421.376 442.604 421.463 442.246 421.551C440.954 421.851 439.676 422.108 438.403 422.333C436.14 422.727 433.903 423.009 431.678 423.184C431.499 423.203 431.32 423.215 431.141 423.228C421.993 423.885 413.088 422.827 403.793 421.094C399.203 420.243 394.517 419.223 389.665 418.166C388.079 417.815 386.488 417.471 384.877 417.127C384.755 417.102 384.627 417.071 384.499 417.046C382.198 416.551 379.858 416.063 377.461 415.581C374.444 414.974 371.33 414.386 368.096 413.829L368.326 418.291C368.517 421.723 369.246 425.106 370.486 428.321C371.867 432.276 372.96 435.405 370.653 441.918L369.54 445.072C370.117 446.638 370.315 448.314 370.119 449.967C369.922 451.621 369.337 453.207 368.409 454.602L368.185 454.934L377.461 477.904L378.062 479.393H373.312L367.469 479.4H357.567L343.279 451.342L342.595 450.003V449.934L344.071 396.015C344.091 395.539 344.129 395.057 344.193 394.582C344.453 392.42 345.151 390.331 346.245 388.435C347.34 386.54 348.809 384.877 350.567 383.544C352.251 382.255 354.18 381.308 356.243 380.755C358.305 380.203 360.459 380.058 362.579 380.328L367.469 380.947L377.461 382.211L384.499 383.106L384.64 383.125L405.397 385.753L406.887 379.808L407.162 379.708L415.901 376.573L446.126 365.729L446.203 365.704L448.191 364.991L448.427 365.367C448.498 365.479 448.568 365.592 448.632 365.704C450.597 369.153 452.197 372.788 453.407 376.555C455.442 382.707 457.118 388.969 458.426 395.308C458.483 395.583 458.534 395.833 458.579 396.059L458.598 396.127C458.617 396.234 458.63 396.303 458.637 396.321C459.333 399.162 458.848 402.629 457.569 406.064Z" fill="#2F2E41"/>
<path d="M458.845 386.193C458.749 385.793 458.627 385.386 458.5 384.992C457.485 382.006 456.302 379.077 454.958 376.219C453.449 372.965 451.64 369.48 449.486 365.707C448.444 363.88 447.323 361.98 446.123 360.006C445.522 359.018 444.898 358.01 444.25 356.984C444.225 356.937 444.197 356.891 444.167 356.846L443.982 356.546L414.076 360.463L402.94 361.921L402.275 367.353L402.115 368.698C402.109 368.698 402.109 368.698 402.115 368.704L401.668 372.371V372.377L401.073 377.22L401.022 377.214L384.497 375.118L367.466 372.959L358.318 371.802C356.198 371.531 354.044 371.676 351.982 372.228C349.92 372.781 347.991 373.729 346.306 375.018C344.549 376.352 343.08 378.014 341.986 379.91C340.891 381.805 340.194 383.894 339.933 386.056C339.875 386.494 339.837 386.944 339.818 387.388L331.187 407.406C326.023 419.377 322.734 432.042 321.432 444.974L315.103 464.779L316.004 464.86L329.416 466.08L332.958 466.406L340.757 455.262C341.646 453.991 342.49 452.683 343.276 451.344C344.571 449.157 345.722 446.892 346.722 444.561L363.592 405.266C364.896 405.485 366.188 405.693 367.466 405.891C373.38 406.83 379.057 407.595 384.497 408.188C402.186 410.121 417.503 410.271 431.139 408.632C434.968 408.175 438.669 407.575 442.243 406.83C443.553 406.561 444.847 406.271 446.123 405.96C446.424 405.891 446.718 405.823 447.012 405.747C449.654 405.08 452.083 403.776 454.076 401.952C456.07 400.129 457.564 397.845 458.423 395.31C459.448 392.373 459.594 389.21 458.845 386.193Z" fill="#2F2E41"/>
<path d="M319.591 486.635L310.174 482.218L308.697 481.523L306.338 487.192L289.871 490.74C289.056 490.915 288.321 491.34 287.771 491.953C287.221 492.566 286.886 493.336 286.814 494.149C286.743 494.962 286.939 495.775 287.374 496.472C287.809 497.168 288.459 497.709 289.231 498.018L305.322 504.444L310.43 499.945L309.177 505.983L315.237 508.405L321.879 487.712L319.591 486.635Z" fill="#1D3557"/>
<path d="M377.461 477.904L378.062 479.393H377.461V477.904Z" fill="#2F2E41"/>
<path d="M374.181 479.712L364.315 483.058L362.766 483.581L365.165 489.234L356.014 503.097C355.561 503.782 355.343 504.591 355.394 505.405C355.444 506.219 355.758 506.997 356.292 507.624C356.826 508.251 357.55 508.694 358.36 508.889C359.169 509.084 360.021 509.021 360.791 508.708L376.844 502.193L377.239 495.478L380.69 500.632L386.737 498.179L376.581 478.9L374.181 479.712Z" fill="#1D3557"/>
<path d="M456.384 395.259C455.798 395.258 455.221 395.118 454.703 394.851L402.635 368.221L402.034 365.81L400.9 358.181L400.916 358.109L405.867 335.764C405.777 335.572 405.587 335.257 405.373 334.901C403.162 331.235 396.434 320.077 409.274 304.713L431.818 278.987L451.166 278.173L451.386 278.445C456.56 284.801 460.049 292.309 461.543 300.303C463.038 308.297 462.491 316.528 459.953 324.265L457.938 359.88L460.099 367.072C461.362 371.299 461.153 375.817 459.505 379.914L460 391.56C460.02 392.038 459.94 392.514 459.768 392.961C459.595 393.408 459.332 393.816 458.994 394.161C458.657 394.506 458.252 394.781 457.803 394.97C457.355 395.158 456.872 395.257 456.384 395.259Z" fill="#457B9D"/>
<path d="M411.219 424.63C412.101 424.12 412.858 423.427 413.437 422.6C414.016 421.772 414.402 420.831 414.569 419.841C414.736 418.852 414.679 417.839 414.402 416.873C414.126 415.907 413.637 415.013 412.969 414.253L425.487 393.18L412.566 393.893L402.659 413.794C401.429 414.977 400.684 416.561 400.567 418.245C400.449 419.93 400.967 421.598 402.022 422.934C403.077 424.269 404.596 425.18 406.291 425.492C407.986 425.805 409.739 425.498 411.219 424.63L411.219 424.63Z" fill="#FFB7B7"/>
<path d="M416.27 409.138L404.703 400.319L425.723 360.448L417.846 309.674C417.457 307.165 417.637 304.602 418.374 302.168C419.11 299.734 420.385 297.488 422.108 295.591C423.83 293.693 425.959 292.19 428.342 291.188C430.725 290.187 433.304 289.711 435.896 289.794C440.577 289.95 445.005 291.917 448.206 295.265C451.408 298.612 453.122 303.065 452.972 307.648L451.026 365.461L416.27 409.138Z" fill="#457B9D"/>
<path d="M419.407 268.298V249.558C419.402 242.898 422.101 236.509 426.909 231.797C431.717 227.084 438.241 224.434 445.045 224.43C451.85 224.426 458.377 227.067 463.191 231.774C468.006 236.48 470.713 242.866 470.717 249.526V249.558C475.239 258.781 472.41 263.165 470.717 268.298C470.716 269.192 470.352 270.048 469.706 270.68C469.061 271.312 468.186 271.668 467.272 271.67H422.853C421.94 271.669 421.064 271.313 420.418 270.681C419.772 270.049 419.408 269.192 419.407 268.298Z" fill="#2F2E41"/>
<path d="M436.65 270.452C447.256 270.452 455.854 262.036 455.854 251.655C455.854 241.274 447.256 232.858 436.65 232.858C426.044 232.858 417.446 241.274 417.446 251.655C417.446 262.036 426.044 270.452 436.65 270.452Z" fill="#FFB7B7"/>
<path d="M456.748 256.583C456.574 256.556 456.4 256.52 456.226 256.493C453.23 255.973 450.235 255.462 447.248 254.933L446.973 248.307L443.355 254.242C435.101 256.923 427.379 255.408 420.115 252.064C417.719 250.95 415.394 249.696 413.153 248.307C413.763 244.642 415.202 241.157 417.366 238.107C419.529 235.057 422.362 232.519 425.657 230.679C425.932 230.526 426.197 230.392 426.472 230.257C426.473 230.257 426.475 230.257 426.476 230.257C426.477 230.256 426.478 230.255 426.479 230.255C426.479 230.254 426.48 230.253 426.481 230.252C426.481 230.251 426.481 230.249 426.481 230.248C426.948 230.033 427.425 229.827 427.901 229.639C431.63 228.212 435.697 227.851 439.628 228.597C443.558 229.343 447.192 231.165 450.106 233.853C455.969 239.331 458.607 248.378 456.748 256.583Z" fill="#2F2E41"/>
</g>
<defs>
<clipPath id="clip0_3_15">
<rect width="556" height="509" fill="white"/>
</clipPath>
</defs>
</svg>
