<svg width="479" height="274" viewBox="0 0 479 274" fill="none" xmlns="http://www.w3.org/2000/svg">
<path fill-rule="evenodd" clip-rule="evenodd" d="M240.346 0.00412299C271.495 -0.384221 288.428 26.7629 315.1 38.3108C341.104 49.5697 375.809 50.2872 395.207 67.0532C415.456 84.5548 412.467 109.628 422.559 131.189C437.727 163.598 502.922 201.67 469.678 226.166C431.315 254.436 362.951 211.878 308.181 215.471C282.266 217.171 264.122 233.622 240.346 241.209C202.125 253.406 167.236 276.774 125.62 273.729C81.6271 270.511 37.0496 252.01 14.5714 224.693C-7.92356 197.355 0.322748 162.41 8.32861 131.189C15.4703 103.338 27.0862 73.3205 57.9217 55.6383C87.3941 38.7376 132.352 50.7462 167.077 40.1563C195.851 31.3808 209.083 0.39388 240.346 0.00412299Z" fill="#E63946"/>
</svg>
