<svg width="593" height="629" viewBox="0 0 593 629" fill="none" xmlns="http://www.w3.org/2000/svg">
<path fill-rule="evenodd" clip-rule="evenodd" d="M297.769 6.06637C362.579 21.8887 385.745 100.33 437.484 142.447C484.792 180.957 564.71 183.95 586.351 240.982C608.004 298.043 567.372 358.842 540.366 413.573C516.936 461.056 481.689 498.237 442.077 533.371C397.858 572.591 356.797 631.775 297.769 628.747C238.7 625.716 212.813 552.249 163.833 519.095C112.141 484.106 26.3502 488.498 4.29839 430.103C-17.6069 372.096 50.579 319.481 65.7487 259.36C82.6681 192.305 51.0901 110.516 97.8033 59.5195C145.576 7.3663 229.06 -10.7076 297.769 6.06637Z" fill="#E63946"/>
</svg>
