<svg width="609" height="476" viewBox="0 0 609 476" fill="none" xmlns="http://www.w3.org/2000/svg">
<path fill-rule="evenodd" clip-rule="evenodd" d="M267.271 44.5526C305.631 49.7704 342.253 33.2531 380.798 36.8618C447.496 43.1065 527.536 25.3286 574.298 73.2981C619.345 119.509 609.569 197.534 599.574 261.29C589.659 324.537 571.934 396.123 518.228 430.967C465.13 465.417 394.999 426.608 332.229 434.74C282.82 441.14 240.795 473.152 190.973 473.36C128.246 473.622 43.5489 489.343 10.4105 436.084C-24.6364 379.757 39.2502 310.562 48.835 244.919C55.1132 201.921 42.8071 158.548 56.9341 117.455C72.0716 73.422 88.0009 18.267 131.995 3.01869C177.485 -12.7479 219.566 38.0635 267.271 44.5526Z" fill="#A8DADC"/>
</svg>
