<svg width="1440" height="328" viewBox="0 0 1440 328" fill="none" xmlns="http://www.w3.org/2000/svg">
<g clip-path="url(#clip0_3_13)">
<path d="M0 35.6267L30 71.2533C60 106.88 120 178.133 180 184.034C240 190.38 300 130.26 360 142.507C420 154.753 480 237.14 540 273.101C600 308.393 660 297.26 720 273.101C780 249.387 840 213.76 900 178.133C960 142.507 1020 106.88 1080 118.793C1140 130.26 1200 190.38 1260 201.847C1320 213.76 1380 178.133 1410 160.32L1440 142.507V356.267H1410C1380 356.267 1320 356.267 1260 356.267C1200 356.267 1140 356.267 1080 356.267C1020 356.267 960 356.267 900 356.267C840 356.267 780 356.267 720 356.267C660 356.267 600 356.267 540 356.267C480 356.267 420 356.267 360 356.267C300 356.267 240 356.267 180 356.267C120 356.267 60 356.267 30 356.267H0V35.6267Z" fill="#1D3557"/>
</g>
<defs>
<clipPath id="clip0_3_13">
<rect width="1440" height="334" fill="white"/>
</clipPath>
</defs>
</svg>
